<?xml version="1.0" encoding="UTF-8"?>
<svg fill="none" viewBox="0 0 40 40" xmlns="http://www.w3.org/2000/svg">
<rect width="40" height="40" rx="20" fill="#3B82F6"/>
<g clip-path="url(#a)" stroke="#fff" stroke-linecap="round" stroke-linejoin="round" stroke-width="1.5">
<path d="m14.827 14.175c-0.18 0.2849-0.4202 0.527-0.7037 0.7093-0.2834 0.1822-0.6034 0.3002-0.9373 0.3457-0.38 0.054-0.757 0.112-1.134 0.175-1.053 0.175-1.802 1.102-1.802 2.169v8.426c0 0.5968 0.2371 1.1691 0.659 1.591 0.422 0.422 0.9943 0.659 1.591 0.659h15c0.5967 0 1.169-0.237 1.591-0.659 0.4219-0.4219 0.659-0.9942 0.659-1.591v-8.426c0-1.067-0.75-1.994-1.802-2.169-0.3773-0.0628-0.7553-0.1212-1.134-0.175-0.3338-0.0456-0.6535-0.1637-0.9368-0.3459-0.2833-0.1823-0.5233-0.4243-0.7032-0.7091l-0.822-1.316c-0.1846-0.2999-0.4388-0.5509-0.741-0.7317-0.3021-0.1809-0.6435-0.2863-0.995-0.3073-1.7427-0.0936-3.4893-0.0936-5.232 0-0.3515 0.021-0.6929 0.1264-0.995 0.3073-0.3022 0.1808-0.5564 0.4318-0.741 0.7317l-0.821 1.316z"/>
<path d="m24.5 20.75c0 1.1935-0.4741 2.3381-1.318 3.182s-1.9885 1.318-3.182 1.318-2.3381-0.4741-3.182-1.318-1.318-1.9885-1.318-3.182 0.4741-2.3381 1.318-3.182 1.9885-1.318 3.182-1.318 2.3381 0.4741 3.182 1.318 1.318 1.9885 1.318 3.182zm2.25-2.25h8e-3v8e-3h-8e-3v-8e-3z"/>
</g>
<defs>
<clipPath id="a">
<rect transform="translate(8 8)" width="24" height="24" fill="#fff"/>
</clipPath>
</defs>
</svg>
